<svg xmlns="http://www.w3.org/2000/svg" viewBox="0 0 758 808.41"><defs><style>.cls-1{fill:#f0f5d9;}.cls-2{fill:#5d950f;stroke:#5d950f;stroke-miterlimit:10;}</style></defs><g id="Layer_5" data-name="Layer 5"><g id="Layer_6" data-name="Layer 6"><circle class="cls-1" cx="379" cy="404.94" r="379"/></g></g><g id="Layer_2" data-name="Layer 2"><path class="cls-2" d="M500,895c26.5-251.5-43.5-253.5-105-353,43.5,44.5,102,114,102,114s-3-181,79-253c-77.5,123.5-58.5,235.5-50.5,301.5s17,76,17,186C525.5,904.5,513.5,906.5,500,895Z" transform="translate(-120.5 -94.56)"/><g id="Layer_3" data-name="Layer 3"><path class="cls-2" d="M411.5,580.5s-185,44-171-218c8.39,16.77,46.77,70.37,104,72s115.27,93.32,86,133c-33-29.46-39.66-48-72-66-18-10-41.34-30.34-82-54,17.55,18.33,42.94,50.11,69,65C387.5,536.5,411.5,580.5,411.5,580.5Z" transform="translate(-120.5 -94.56)"/></g><g id="Layer_4" data-name="Layer 4"><path class="cls-2" d="M532.14,452.51s-2-1-6.86-7.13c-15.9-19.87-52.68-117.07,61.84-192.81,46.53-30.77,146-98.13,152.13-156,63,151.28-20,391.47-178.62,375.92C569.12,353.23,694.91,314.72,709.77,221c-20.87,43.6-67.5,91.69-103.5,125C552.27,395.9,532.14,452.51,532.14,452.51Z" transform="translate(-120.5 -94.56)"/></g></g></svg>