<svg xmlns="http://www.w3.org/2000/svg" viewBox="0 0 2914.5 995"><defs><style>.cls-1{fill:#f0f5d9;}.cls-2{fill:#5d950f;stroke:#5d950f;stroke-miterlimit:10;}.cls-3{fill:#e9a811;}.cls-4{fill:#fbf0a9;}.cls-5{fill:#4f4a08;}.cls-6{fill:#6d7f17;}.cls-7{fill:#9da925;}</style></defs><g id="Layer_6" data-name="Layer 6"><circle class="cls-1" cx="379" cy="494.5" r="379"/></g><g id="Layer_2" data-name="Layer 2"><path class="cls-2" d="M500,895c26.5-251.5-43.5-253.5-105-353,43.5,44.5,102,114,102,114s-3-181,79-253c-77.5,123.5-58.5,235.5-50.5,301.5s17,76,17,186C525.5,904.5,513.5,906.5,500,895Z" transform="translate(-120.5 -5)"/><g id="Layer_3" data-name="Layer 3"><path class="cls-2" d="M411.5,580.5s-185,44-171-218c8.39,16.77,46.77,70.37,104,72s115.27,93.32,86,133c-33-29.46-39.66-48-72-66-18-10-41.34-30.34-82-54,17.55,18.33,42.94,50.11,69,65C387.5,536.5,411.5,580.5,411.5,580.5Z" transform="translate(-120.5 -5)"/></g><g id="Layer_4" data-name="Layer 4"><path class="cls-2" d="M532.14,452.51s-2-1-6.86-7.13c-15.9-19.87-52.68-117.07,61.84-192.81,46.53-30.77,146-98.13,152.13-156,63,151.28-20,391.47-178.62,375.92C569.12,353.23,694.91,314.72,709.77,221c-20.87,43.6-67.5,91.69-103.5,125C552.27,395.9,532.14,452.51,532.14,452.51Z" transform="translate(-120.5 -5)"/></g><circle class="cls-1" cx="1397" cy="497.5" r="497.5"/><path class="cls-2" d="M1520,895c26.5-251.5-43.5-253.5-105-353,43.5,44.5,102,114,102,114s-3-181,79-253c-77.5,123.5-58.5,235.5-50.5,301.5s17,76,17,186C1545.5,904.5,1533.5,906.5,1520,895Z" transform="translate(-120.5 -5)"/><path class="cls-2" d="M1431.5,580.5s-185,44-171-218c8.39,16.77,46.77,70.37,104,72s115.27,93.32,86,133c-33-29.46-39.66-48-72-66-18-10-41.34-30.34-82-54,17.55,18.33,42.94,50.11,69,65C1407.5,536.5,1431.5,580.5,1431.5,580.5Z" transform="translate(-120.5 -5)"/><path class="cls-2" d="M1552.14,452.51s-2-1-6.86-7.13c-15.9-19.87-52.68-117.07,61.84-192.81,46.53-30.77,146-98.13,152.13-156,63,151.28-20,391.47-178.62,375.92,8.49-119.24,134.28-157.75,149.14-251.48-20.87,43.6-67.5,91.69-103.5,125C1572.27,395.9,1552.14,452.51,1552.14,452.51Z" transform="translate(-120.5 -5)"/></g><g id="Layer_7" data-name="Layer 7"><circle class="cls-3" cx="2417" cy="497.5" r="497.5"/><g id="Layer_12" data-name="Layer 12"><circle class="cls-4" cx="2611.5" cy="425" r="126"/></g><path class="cls-5" d="M2040,502.5c0,274.76,222.74,497.5,497.5,497.5,231.35,0,425.81-157.91,481.49-371.82,0,0-139.46-20.45-289-146.18-29.67-24.95-132.75-43.23-201-103C2368,238,2280,77,2040,502.5Z" transform="translate(-120.5 -5)"/><g id="Layer_10" data-name="Layer 10"><path class="cls-6" d="M2889.2,854.15a495.94,495.94,0,0,0,145.72-351.78,501,501,0,0,0-5.29-72.72l-19.13,2.19c-67,7.65-134.59,16-198.5,38.72-32.91,11.72-63.88,27.46-93.56,45.81-29.26,18.08-57.55,37.78-87.86,54.11a330.92,330.92,0,0,1-46.56,21c-17.11,6-35.1,9.86-53,12.89-36.39,6.16-73.3,8.33-109.77,13.84-18.59,2.8-37,6.07-55.71,8.32s-37.55,4.16-56.23,7a387.47,387.47,0,0,0-53.3,11.44c-16.78,5-33.22,11.12-50.21,15.4-16.33,4.1-33,5.46-49.71,7-17.44,1.64-34.91,3-52.41,3.86-11.34.54-22.72.87-34.09.85,69.38,191.19,252.63,327.78,467.79,327.78A495.94,495.94,0,0,0,2889.2,854.15" transform="translate(-120.5 -5)"/></g><path class="cls-7" d="M2944.23,789.06C2854.16,916.67,2705.56,1000,2537.5,1000c-250.91,0-458.44-185.75-492.58-427.24C2044.92,572.76,2330.46,429.13,2944.23,789.06Z" transform="translate(-120.5 -5)"/></g></svg>