<svg id="Layer_1" data-name="Layer 1" xmlns="http://www.w3.org/2000/svg" viewBox="0 0 615.51 501.87"><defs><style>.cls-1{fill:#75a071;}</style></defs><g id="Layer_2" data-name="Layer 2"><path class="cls-1" d="M598.55,421.07l32.33,30.27L535.26,552.46s11,8.25,0,20.64S358.1,754.31,354.36,758.41s-13.29,11.23-22.72,9.36C317.89,765.71,295.42,744.23,293,732s-.1-13.63,14.62-28.89L480.49,522.66s9.81-12.25,19.51-1.84C521.84,500,598.55,421.07,598.55,421.07Z" transform="translate(-208.46 -266.76)"/><path class="cls-1" d="M599.72,405.89l48.84,46.78s8.8,6.38,20.64-4.13C683,423,736,445.36,729.4,483.38c-1.65,8.74-6.06,5.35,8.59,21.57,6.23,6,13.76,13.76,13.76,13.76s7,8.69,19.26-2.91c20.17-20.62,52.28-53.5,52.28-53.5s3.17-5.12-4.13-13.07l-20.64-20.64c-5.13-5.16-6.31-4-10.31-2.75-3.18,1-57.79,17.2-46.09-53-59.16-64-149.88-129.34-218.07-87.36-11.37,6.56-8.4,10.74-5.73,10.46a117.86,117.86,0,0,1,26.26-.05s121.87,17.79,57.89,88.65C587.34,395.57,599.72,405.89,599.72,405.89Z" transform="translate(-208.46 -266.76)"/><path class="cls-1" d="M486.42,505.68l-69.48-68.79s34.8-78.89-11.66-128.67c-46.81-50.87-109.56-42.92-104.7-37.36,28.21,30.95,60,62.85,60,62.85s7.62,5,4.81,20c-2.75,13.75-13.07,47.85-13.07,47.85s-.67,8.9-15.82,12c-23.26,6-28.22,7.57-39.9,10.32-10.94,2.35-14.4,2.55-23.78-7L212,352.28c-5.42-2.71-8.11,49.15,20,89.43C253.72,473,293,498.42,371.54,478.85c64,66.73,70.17,72.92,70.17,72.92Z" transform="translate(-208.46 -266.76)"/><path class="cls-1" d="M685.22,708.61C670.09,689.35,548.33,569,548.33,569L500,618.5S632.62,759.09,635.69,762.27s17.49,12.58,34.23,0,13.87-9.9,21.19-17.43C697.23,738.53,702.43,729.07,685.22,708.61Zm-36.89,34.91a21.58,21.58,0,1,1,21.59-21.58A21.58,21.58,0,0,1,648.33,743.52Z" transform="translate(-208.46 -266.76)"/></g></svg>